<svg xmlns="http://www.w3.org/2000/svg" viewBox="0 0 640 360" width="640" height="360"><rect width="640" height="360" fill="#1F2937"/><circle cx="520" cy="90" r="120" fill="#FACC15"/><rect x="140" y="50" width="300" height="270" rx="12" fill="#F9FAFB"/><rect x="170" y="80" width="200" height="16" rx="4" fill="#111827"/><rect x="170" y="106" width="140" height="16" rx="4" fill="#111827"/><rect x="170" y="140" width="240" height="70" rx="6" fill="#FDE68A"/><g fill="#D1D5DB"><rect x="170" y="226" width="240" height="8" rx="4"/><rect x="170" y="244" width="220" height="8" rx="4"/><rect x="170" y="262" width="236" height="8" rx="4"/><rect x="170" y="280" width="160" height="8" rx="4"/></g><path d="M470 230 q0 -40 40 -46 v20 q-18 4 -18 26 h18 v40 h-40 z M530 230 q0 -40 40 -46 v20 q-18 4 -18 26 h18 v40 h-40 z" fill="#F9FAFB"/></svg>
