<svg xmlns="http://www.w3.org/2000/svg" viewBox="0 0 640 360" width="640" height="360"><rect width="640" height="360" fill="#C2410C"/><circle cx="100" cy="70" r="150" fill="#F97316" opacity=".4"/><path d="M220 140 h200 l-16 170 h-168 z" fill="#FFF7ED"/><path d="M270 140 v-24 a50 50 0 0 1 100 0 v24" stroke="#FFF7ED" stroke-width="12" fill="none"/><circle cx="270" cy="170" r="7" fill="#C2410C"/><circle cx="370" cy="170" r="7" fill="#C2410C"/><rect x="290" y="210" width="60" height="60" rx="30" fill="#FDBA74"/><g><rect x="460" y="90" width="110" height="130" rx="10" fill="#FFEDD5"/><rect x="474" y="104" width="82" height="62" rx="6" fill="#FB923C"/><rect x="474" y="176" width="60" height="8" rx="4" fill="#9A3412"/><rect x="474" y="192" width="40" height="8" rx="4" fill="#F59E0B"/></g><g><rect x="70" y="170" width="110" height="130" rx="10" fill="#FFEDD5"/><rect x="84" y="184" width="82" height="62" rx="6" fill="#FDBA74"/><rect x="84" y="256" width="60" height="8" rx="4" fill="#9A3412"/><rect x="84" y="272" width="40" height="8" rx="4" fill="#F59E0B"/></g></svg>
