<svg xmlns="http://www.w3.org/2000/svg" viewBox="0 0 640 360" width="640" height="360"><rect width="640" height="360" fill="#B45309"/><circle cx="560" cy="320" r="160" fill="#F59E0B" opacity=".35"/><rect x="250" y="60" width="300" height="240" rx="14" fill="#FFFBEB"/><rect x="250" y="60" width="300" height="46" rx="14" fill="#FDE68A"/><g fill="#FCD34D"><rect x="266" y="122" width="34" height="30" rx="5"/><rect x="312" y="122" width="34" height="30" rx="5"/><rect x="358" y="122" width="34" height="30" rx="5"/><rect x="404" y="122" width="34" height="30" rx="5"/><rect x="450" y="122" width="34" height="30" rx="5"/><rect x="496" y="122" width="34" height="30" rx="5"/><rect x="266" y="164" width="34" height="30" rx="5"/><rect x="312" y="164" width="34" height="30" rx="5"/><rect x="358" y="164" width="34" height="30" rx="5"/><rect x="404" y="164" width="34" height="30" rx="5"/><rect x="450" y="164" width="34" height="30" rx="5"/><rect x="496" y="164" width="34" height="30" rx="5"/><rect x="266" y="206" width="34" height="30" rx="5"/><rect x="312" y="206" width="34" height="30" rx="5"/><rect x="358" y="206" width="34" height="30" rx="5"/><rect x="404" y="206" width="34" height="30" rx="5"/><rect x="450" y="206" width="34" height="30" rx="5"/><rect x="496" y="206" width="34" height="30" rx="5"/><rect x="266" y="248" width="34" height="30" rx="5"/><rect x="312" y="248" width="34" height="30" rx="5"/><rect x="358" y="248" width="34" height="30" rx="5"/><rect x="404" y="248" width="34" height="30" rx="5"/><rect x="450" y="248" width="34" height="30" rx="5"/><rect x="496" y="248" width="34" height="30" rx="5"/></g><rect x="358" y="164" width="126" height="30" rx="5" fill="#B45309"/><rect x="312" y="248" width="80" height="30" rx="5" fill="#0F766E"/><circle cx="140" cy="130" r="40" fill="#FEF3C7"/><path d="M70 270 a70 70 0 0 1 140 0 z" fill="#FEF3C7"/></svg>
